<?xml version="1.0" encoding="UTF-8"?>
<!DOCTYPE svg PUBLIC "-//W3C//DTD SVG 1.1//EN" "http://www.w3.org/Graphics/SVG/1.1/DTD/svg11.dtd">
<!-- Creator: CorelDRAW -->
<svg xmlns="http://www.w3.org/2000/svg" xml:space="preserve" width="2048px" height="2048px" style="shape-rendering:geometricPrecision; text-rendering:geometricPrecision; image-rendering:optimizeQuality; fill-rule:evenodd; clip-rule:evenodd"
viewBox="0 0 2048 2048"
 xmlns:xlink="http://www.w3.org/1999/xlink">
 <defs>
  <style type="text/css">
   <![CDATA[
    .fil2 {fill:none}
    .fil5 {fill:#CD8E76}
    .fil1 {fill:#D81B60}
    .fil3 {fill:#E69F83}
    .fil0 {fill:#F06292}
    .fil4 {fill:#F3AC90}
   ]]>
  </style>
   <clipPath id="id0">
    <path d="M1024 0c565.539,0 1024,458.461 1024,1024 0,565.539 -458.461,1024 -1024,1024 -565.539,0 -1024,-458.461 -1024,-1024 0,-565.539 458.461,-1024 1024,-1024z"/>
   </clipPath>
 </defs>
 <g id="Layer_x0020_1">
  <metadata id="CorelCorpID_0Corel-Layer"/>
  <path class="fil0" d="M1024 0c565.539,0 1024,458.461 1024,1024 0,565.539 -458.461,1024 -1024,1024 -565.539,0 -1024,-458.461 -1024,-1024 0,-565.539 458.461,-1024 1024,-1024z"/>
  <g style="clip-path:url(#id0)">
   <g id="_281970760">
    <g>
     <polygon id="_2752516401" class="fil1" points="721.926,683.066 1857.81,1818.95 1860,1821.37 1861.95,1823.95 1863.65,1826.67 1865.06,1829.52 1866.17,1832.46 1866.95,1835.49 1867.37,1838.58 1867.41,1841.71 1867.04,1844.86 731.16,708.982 731.526,705.831 731.486,702.7 731.066,699.61 730.289,696.582 729.182,693.635 727.767,690.79 726.07,688.066 724.114,685.485 "/>
     <polygon id="_275252048" class="fil1" points="731.16,708.982 1867.04,1844.86 1837.93,2030.88 702.044,894.999 "/>
     <polygon id="_275252552" class="fil1" points="831.892,618.987 1967.77,1754.87 1969.83,1757.03 1971.71,1759.35 1973.4,1761.81 1974.9,1764.41 1976.18,1767.15 1977.23,1770.03 1978.04,1773.03 842.161,637.152 841.349,634.147 840.296,631.273 839.014,628.531 837.52,625.927 835.825,623.467 833.945,621.152 "/>
     <polygon id="_275252864" class="fil1" points="839.479,676.439 1975.36,1812.32 1932.22,2049.67 796.335,913.79 "/>
     <polygon id="_275252504" class="fil1" points="887.239,935.051 2023.12,2070.93 2023.04,2071.58 2022.97,2072.52 2022.91,2073.73 2022.87,2075.14 2022.85,2076.71 2022.85,2078.41 2022.88,2080.16 2022.94,2081.95 2023.04,2083.7 2023.17,2085.39 2023.35,2086.95 2023.57,2088.36 2023.85,2089.55 2024.17,2090.48 2024.56,2091.1 888.677,955.222 888.292,954.596 887.965,953.664 887.692,952.474 887.468,951.072 887.291,949.505 887.156,947.82 887.061,946.064 886.999,944.283 886.97,942.523 886.967,940.833 886.988,939.258 887.031,937.846 887.089,936.642 887.16,935.696 "/>
     <polygon id="_275252288" class="fil1" points="542.554,832.716 1678.44,1968.6 1679.57,1969.75 1680.68,1970.96 1681.76,1972.21 1682.81,1973.51 1683.82,1974.86 1684.8,1976.25 1685.75,1977.69 1686.66,1979.18 550.783,843.295 549.869,841.809 548.921,840.369 547.94,838.974 546.926,837.627 545.881,836.326 544.803,835.073 543.694,833.87 "/>
     <polygon id="_275252384" class="fil1" points="895.503,1229.83 2031.38,2365.72 2027.46,2372.24 2023.62,2378.77 2019.86,2385.31 2016.17,2391.85 2012.57,2398.4 2009.04,2404.95 2005.6,2411.51 2002.24,2418.07 1998.96,2424.64 1995.76,2431.22 1992.65,2437.8 1989.62,2444.39 1986.67,2450.98 1983.8,2457.58 1981.02,2464.19 1978.33,2470.79 1975.72,2477.41 1973.19,2484.03 1970.75,2490.66 1968.39,2497.29 1966.13,2503.93 1963.94,2510.58 1961.85,2517.23 1959.84,2523.89 1957.93,2530.55 1956.09,2537.22 1954.35,2543.89 1952.7,2550.57 1951.14,2557.26 1949.66,2563.95 1948.28,2570.65 1946.99,2577.36 811.107,1441.47 812.399,1434.77 813.783,1428.07 815.255,1421.38 816.819,1414.69 818.471,1408.01 820.214,1401.34 822.044,1394.67 823.962,1388 825.969,1381.35 828.063,1374.7 830.245,1368.05 832.514,1361.41 834.869,1354.78 837.309,1348.15 839.835,1341.53 842.447,1334.91 845.143,1328.3 847.923,1321.7 850.789,1315.1 853.737,1308.51 856.769,1301.92 859.883,1295.34 863.081,1288.76 866.361,1282.19 869.721,1275.63 873.164,1269.07 876.687,1262.52 880.29,1255.97 883.974,1249.43 887.738,1242.89 891.581,1236.36 "/>
     <polygon id="_275252696" class="fil1" points="811.107,1441.47 1946.99,2577.36 1657.54,2577.36 521.659,1441.47 "/>
     <polygon id="_275252912" class="fil1" points="550.783,843.295 1686.66,1979.18 1747.31,2081.08 611.425,945.196 "/>
     <polygon id="_275252840" class="fil1" points="702.044,894.999 1837.93,2030.88 1837.87,2031.7 1837.97,2032.5 1838.22,2033.24 1838.61,2033.92 1839.12,2034.51 703.237,898.631 702.728,898.039 702.342,897.36 702.089,896.614 701.986,895.821 "/>
     <polygon id="_275252168" class="fil1" points="842.161,637.152 1978.04,1773.03 1978.41,1774.7 1978.73,1776.27 1979.01,1777.74 1979.26,1779.13 1979.47,1780.44 1979.64,1781.68 1979.78,1782.86 1979.88,1783.98 1979.96,1785.05 1980,1786.08 1980.01,1787.07 1979.99,1788.03 1979.95,1788.98 1979.87,1789.91 1979.78,1790.83 1979.66,1791.75 1979.51,1792.68 1979.34,1793.62 1979.16,1794.59 1978.95,1795.58 1978.72,1796.61 1978.48,1797.68 1978.22,1798.81 1977.95,1799.99 1977.66,1801.23 1977.36,1802.54 1977.05,1803.94 1976.73,1805.41 1976.4,1806.98 1976.06,1808.65 1975.71,1810.43 1975.36,1812.32 839.479,676.439 839.831,674.548 840.177,672.772 840.516,671.102 840.847,669.531 841.169,668.053 841.481,666.661 841.781,665.346 842.069,664.104 842.343,662.924 842.601,661.802 842.844,660.73 843.069,659.701 843.276,658.706 843.462,657.741 843.629,656.797 843.774,655.868 843.896,654.945 843.993,654.024 844.065,653.095 844.11,652.152 844.127,651.187 844.116,650.195 844.074,649.167 844.002,648.096 843.897,646.976 843.759,645.8 843.586,644.56 843.377,643.249 843.132,641.859 842.847,640.385 842.525,638.817 "/>
     <polygon id="_275253368" class="fil1" points="922.054,714.184 2057.94,1850.07 2023.12,2070.93 887.239,935.051 "/>
     <polygon id="_275253512" class="fil1" points="953.566,1081.2 2089.45,2217.08 2088.61,2223.64 2087.77,2230.05 2086.94,2236.31 2086.09,2242.42 2085.24,2248.4 2084.36,2254.23 2083.45,2259.93 2082.5,2265.49 2081.51,2270.92 2080.48,2276.23 2079.39,2281.4 2078.23,2286.46 2077.01,2291.39 2075.71,2296.2 2074.32,2300.9 2072.85,2305.48 2071.27,2309.96 2069.6,2314.33 2067.81,2318.59 2065.91,2322.75 2063.88,2326.81 2061.72,2330.78 2059.42,2334.65 2056.98,2338.43 2054.38,2342.12 2051.63,2345.73 2048.71,2349.25 2045.61,2352.7 2042.34,2356.06 2038.89,2359.35 2035.23,2362.57 2031.38,2365.72 895.503,1229.83 899.353,1226.69 903.004,1223.47 906.461,1220.18 909.733,1216.81 912.825,1213.37 915.745,1209.85 918.499,1206.24 921.094,1202.55 923.538,1198.77 925.836,1194.9 927.996,1190.93 930.026,1186.87 931.931,1182.71 933.718,1178.44 935.394,1174.08 936.966,1169.6 938.441,1165.02 939.825,1160.32 941.127,1155.5 942.352,1150.57 943.507,1145.52 944.598,1140.34 945.634,1135.04 946.621,1129.61 947.566,1124.05 948.474,1118.35 949.354,1112.52 950.213,1106.54 951.057,1100.43 951.892,1094.16 952.726,1087.76 "/>
     <polygon id="_275252960" class="fil1" points="912.519,682.756 2048.4,1818.64 2050.62,1821.31 2052.61,1824.2 2054.34,1827.3 2055.78,1830.61 2056.92,1834.12 2057.73,1837.82 2058.19,1841.71 2058.26,1845.8 2057.94,1850.07 922.054,714.184 922.383,709.915 922.308,705.832 921.853,701.936 921.043,698.233 919.901,694.726 918.454,691.421 916.725,688.322 914.738,685.432 "/>
     <polygon id="_275253560" class="fil1" points="1001.69,796.619 2137.57,1932.5 2098.34,2155.58 962.46,1019.7 "/>
     <polygon id="_275253056" class="fil1" points="796.335,913.79 1932.22,2049.67 1932.12,2051.03 1932.29,2052.35 1932.71,2053.58 1933.35,2054.71 1934.19,2055.69 798.31,919.805 797.467,918.824 796.827,917.701 796.408,916.466 796.238,915.152 "/>
     <polygon id="_275253248" class="fil1" points="962.46,1019.7 2098.34,2155.58 2098.01,2157.5 2097.68,2159.41 2097.35,2161.33 2097.03,2163.24 2096.72,2165.16 2096.41,2167.08 2096.11,2169 2095.8,2170.92 2095.51,2172.83 2095.21,2174.75 2094.92,2176.67 2094.64,2178.59 2094.36,2180.51 2094.08,2182.43 2093.8,2184.36 2093.53,2186.28 2093.26,2188.2 2092.99,2190.12 2092.73,2192.04 2092.46,2193.97 2092.2,2195.89 2091.95,2197.82 2091.69,2199.74 2091.44,2201.67 2091.18,2203.59 2090.93,2205.52 2090.68,2207.44 2090.43,2209.37 2090.19,2211.3 2089.94,2213.22 2089.69,2215.15 2089.45,2217.08 953.566,1081.2 953.812,1079.27 954.057,1077.34 954.304,1075.41 954.552,1073.49 954.802,1071.56 955.051,1069.63 955.302,1067.71 955.555,1065.78 955.809,1063.86 956.065,1061.93 956.323,1060.01 956.584,1058.09 956.846,1056.16 957.111,1054.24 957.378,1052.32 957.648,1050.4 957.921,1048.47 958.196,1046.55 958.475,1044.63 958.757,1042.71 959.043,1040.79 959.332,1038.87 959.626,1036.95 959.923,1035.03 960.224,1033.11 960.53,1031.2 960.839,1029.28 961.153,1027.36 961.472,1025.45 961.797,1023.53 962.126,1021.61 "/>
     <polygon id="_275253488" class="fil1" points="991.582,760.793 2127.46,1896.68 2129.76,1899.39 2131.83,1902.3 2133.66,1905.43 2135.22,1908.75 2136.49,1912.26 2137.44,1915.96 2138.05,1919.84 2138.29,1923.89 2138.14,1928.12 2137.57,1932.5 1001.69,796.619 1002.26,792.233 1002.41,788.011 1002.17,783.957 1001.56,780.077 1000.61,776.378 999.34,772.866 997.778,769.544 995.948,766.421 993.875,763.503 "/>
     <polygon id="_275253272" class="fil1" points="1384.49,684.25 2520.37,1820.13 2522.23,1822.37 2523.91,1824.76 2525.42,1827.31 2526.77,1830 2527.94,1832.84 2528.94,1835.82 2529.78,1838.94 2530.45,1842.18 1394.56,706.3 1393.9,703.055 1393.06,699.941 1392.06,696.961 1390.88,694.12 1389.54,691.425 1388.03,688.877 1386.35,686.484 "/>
     <polygon id="_275253440" class="fil1" points="1187.39,676.077 2323.28,1811.96 2325.27,1814.16 2327.02,1816.67 2328.48,1819.48 2329.64,1822.6 2330.47,1826.03 1194.59,690.143 1193.76,686.714 1192.6,683.595 1191.14,680.787 1189.39,678.282 "/>
     <polygon id="_275253344" class="fil1" points="1572.1,838.742 2707.98,1974.62 2708.82,1975.62 2709.64,1976.64 2710.43,1977.69 2711.19,1978.75 1575.31,842.865 1574.55,841.803 1573.76,840.762 1572.94,839.741 "/>
     <polygon id="_275254160" class="fil1" points="1106.78,754.704 2242.67,1890.59 2244.4,1892.99 2245.86,1895.73 2247.01,1898.8 2247.84,1902.21 1111.96,766.332 1111.13,762.919 1109.97,759.849 1108.52,757.112 "/>
     <polygon id="_275254040" class="fil1" points="1111.96,766.332 2247.84,1902.21 2289.35,2087.56 1153.46,951.682 "/>
     <polygon id="_275253824" class="fil1" points="1153.46,951.682 2289.35,2087.56 2289.6,2088.48 2290.02,2089.3 2290.58,2090.01 1154.7,954.124 1154.14,953.414 1153.72,952.595 "/>
     <polygon id="_275254064" class="fil1" points="1152.5,1229.83 2288.38,2365.72 2284.53,2362.57 2280.88,2359.35 2277.42,2356.06 1141.54,1220.18 1145,1223.47 1148.65,1226.69 "/>
     <polygon id="_275253848" class="fil1" points="1526.34,1441.47 2662.22,2577.36 2372.77,2577.36 1236.89,1441.47 "/>
     <polygon id="_275254424" class="fil1" points="1194.59,690.143 2330.47,1826.03 2374.26,2051.97 1238.38,916.091 "/>
     <polygon id="_275254232" class="fil1" points="1268.19,618.008 2404.07,1753.89 2405.77,1755.83 2407.4,1757.88 2408.97,1760.03 2410.46,1762.27 2411.89,1764.58 2413.26,1766.97 2414.55,1769.42 2415.78,1771.92 2416.94,1774.46 2418.03,1777.02 2419.05,1779.62 2420,1782.22 2420.89,1784.83 2421.7,1787.43 2422.45,1790.01 2423.13,1792.57 2423.74,1795.09 2424.28,1797.56 2424.75,1799.99 1288.87,664.104 1288.4,661.682 1287.86,659.207 1287.25,656.685 1286.57,654.128 1285.82,651.545 1285.01,648.945 1284.12,646.339 1283.17,643.734 1282.15,641.142 1281.06,638.573 1279.9,636.034 1278.67,633.537 1277.37,631.089 1276.01,628.702 1274.58,626.385 1273.09,624.148 1271.52,622 1269.89,619.949 "/>
     <polygon id="_275254256" class="fil1" points="1444.51,1183.8 2580.39,2319.68 2581.08,2330.83 2581.91,2341.66 2582.88,2352.18 2583.99,2362.42 2585.23,2372.38 2586.61,2382.07 2588.12,2391.5 2589.75,2400.69 2591.52,2409.65 2593.41,2418.38 2595.42,2426.9 2597.55,2435.22 2599.81,2443.36 2602.17,2451.32 2604.65,2459.11 2607.25,2466.75 2609.95,2474.24 2612.76,2481.61 2615.68,2488.85 2618.7,2495.99 2621.82,2503.03 2625.04,2509.99 2628.36,2516.87 2631.77,2523.69 2635.28,2530.46 2638.87,2537.18 2642.56,2543.88 2646.32,2550.57 2650.18,2557.24 2654.11,2563.93 2658.13,2570.63 2662.22,2577.36 1526.34,1441.47 1522.25,1434.74 1518.23,1428.04 1514.3,1421.36 1510.44,1414.68 1506.67,1408 1502.99,1401.3 1499.4,1394.57 1495.89,1387.81 1492.48,1380.99 1489.16,1374.1 1485.94,1367.15 1482.82,1360.11 1479.8,1352.97 1476.88,1345.73 1474.07,1338.36 1471.37,1330.86 1468.77,1323.23 1466.29,1315.43 1463.92,1307.48 1461.67,1299.34 1459.54,1291.02 1457.53,1282.5 1455.64,1273.76 1453.87,1264.81 1452.24,1255.62 1450.73,1246.19 1449.35,1236.5 1448.11,1226.54 1447,1216.3 1446.03,1205.77 1445.2,1194.94 "/>
     <polygon id="_275253800" class="fil1" points="1288.87,664.104 2424.75,1799.99 2473.81,2032.27 1337.93,896.389 "/>
     <polygon id="_275254328" class="fil1" points="1238.38,916.091 2374.26,2051.97 2374.62,2053.29 2375.23,2054.47 2376.03,2055.49 1240.15,919.608 1239.35,918.587 1238.74,917.407 "/>
     <polygon id="_275254376" class="fil1" points="1394.56,706.3 2530.45,1842.18 2572.46,2081.08 1436.57,945.196 "/>
     <polygon id="_275255120" class="fil1" points="1575.31,842.865 2711.19,1978.75 2712.25,1980.33 2713.24,1981.92 2714.16,1983.52 2715.01,1985.13 2715.79,1986.75 2716.5,1988.38 2717.14,1990.02 2717.71,1991.66 2718.21,1993.31 2718.65,1994.97 2719.02,1996.63 2719.32,1998.3 2719.56,1999.98 2719.73,2001.65 2719.84,2003.34 2719.88,2005.02 2719.86,2006.7 2719.77,2008.39 2719.63,2010.08 2719.42,2011.76 2719.15,2013.45 2718.82,2015.14 2718.43,2016.82 2717.97,2018.5 2717.46,2020.18 2716.89,2021.86 2716.26,2023.53 2715.58,2025.19 2714.83,2026.85 2714.03,2028.51 2713.17,2030.16 2712.26,2031.8 1576.37,895.916 1577.29,894.276 1578.15,892.627 1578.95,890.972 1579.69,889.312 1580.38,887.645 1581.01,885.975 1581.58,884.299 1582.09,882.621 1582.55,880.939 1582.94,879.255 1583.27,877.569 1583.54,875.883 1583.75,874.195 1583.89,872.507 1583.98,870.822 1584,869.136 1583.96,867.453 1583.85,865.772 1583.68,864.095 1583.44,862.422 1583.13,860.753 1582.77,859.088 1582.33,857.43 1581.83,855.779 1581.25,854.134 1580.61,852.497 1579.91,850.867 1579.13,849.246 1578.28,847.635 1577.36,846.035 1576.37,844.444 "/>
     <polygon id="_275254880" class="fil1" points="1337.93,896.389 2473.81,2032.27 2474.03,2033.06 2474.4,2033.78 2474.89,2034.39 1339,898.513 1338.52,897.895 1338.15,897.183 "/>
     <polygon id="_275254784" class="fil1" points="1576.37,895.916 2712.26,2031.8 2708.77,2037.85 2705.42,2043.69 2702.18,2049.34 2699.06,2054.82 2696.04,2060.13 2693.14,2065.29 2690.33,2070.32 2687.62,2075.24 2684.99,2080.05 2682.46,2084.78 2680,2089.44 2677.61,2094.04 2675.3,2098.6 2673.05,2103.14 2670.86,2107.66 2668.72,2112.19 2666.63,2116.74 2664.59,2121.33 2662.58,2125.96 2660.61,2130.67 2658.67,2135.45 2656.75,2140.33 2654.85,2145.32 2652.97,2150.44 2651.09,2155.7 2649.21,2161.12 2647.34,2166.71 2645.45,2172.49 2643.56,2178.48 2641.64,2184.67 2639.71,2191.11 2637.75,2197.79 2636.51,2202.04 2635.29,2206.25 2634.07,2210.43 2632.85,2214.59 2631.63,2218.71 2630.39,2222.8 2629.14,2226.86 2627.88,2230.89 2626.59,2234.89 2625.27,2238.86 2623.93,2242.81 2622.55,2246.72 2621.13,2250.61 2619.66,2254.46 2618.15,2258.29 2616.59,2262.09 2614.96,2265.86 2613.28,2269.6 2611.53,2273.32 2609.71,2277.01 2607.82,2280.67 2605.84,2284.3 2603.79,2287.91 2601.65,2291.49 2599.41,2295.04 2597.08,2298.57 2594.65,2302.07 2592.11,2305.55 2589.47,2309 2586.71,2312.42 2583.83,2315.82 2580.84,2319.2 2580.78,2319.26 2580.72,2319.32 2580.67,2319.38 2580.61,2319.44 2580.56,2319.5 2580.51,2319.56 2580.45,2319.62 2580.39,2319.68 1444.51,1183.8 1444.57,1183.74 1444.62,1183.68 1444.68,1183.62 1444.73,1183.56 1444.79,1183.5 1444.84,1183.44 1444.9,1183.37 1444.95,1183.31 1447.95,1179.94 1450.83,1176.54 1453.59,1173.11 1456.23,1169.66 1458.77,1166.19 1461.2,1162.69 1463.53,1159.16 1465.76,1155.6 1467.91,1152.02 1469.96,1148.42 1471.93,1144.78 1473.83,1141.12 1475.65,1137.43 1477.4,1133.72 1479.08,1129.98 1480.7,1126.21 1482.27,1122.41 1483.78,1118.58 1485.25,1114.72 1486.67,1110.84 1488.05,1106.93 1489.39,1102.98 1490.71,1099.01 1492,1095.01 1493.26,1090.98 1494.51,1086.92 1495.74,1082.82 1496.97,1078.7 1498.19,1074.55 1499.41,1070.37 1500.63,1066.15 1501.86,1061.91 1503.83,1055.23 1505.76,1048.79 1507.67,1042.59 1509.57,1036.61 1511.45,1030.83 1513.33,1025.24 1515.21,1019.82 1517.08,1014.56 1518.97,1009.44 1520.87,1004.45 1522.79,999.569 1524.73,994.785 1526.7,990.082 1528.71,985.445 1530.75,980.859 1532.84,976.308 1534.98,971.779 1537.17,967.253 1539.42,962.717 1541.73,958.157 1544.12,953.557 1546.58,948.9 1549.11,944.172 1551.74,939.357 1554.45,934.442 1557.26,929.41 1560.16,924.246 1563.17,918.935 1566.3,913.462 1569.54,907.811 1572.89,901.967 "/>
    </g>
    <path id="_281970208" class="fil1" d="M922.054 714.184l-34.8154 220.867c-0.441733,2.54646 -0.662599,20.0043 1.88386,20.4449 2.54764,0.43937 4.97008,-1.26732 5.41182,-3.81378l41.5075 -185.351c6.99213,-38.2288 74.0221,-17.3315 65.6469,30.287l-39.2292 223.08c-3.59174,20.426 -6.27638,40.9323 -8.89371,61.4977 -9.01064,70.7812 -15.9036,115.42 -58.063,148.637 -42.2552,69.5741 -71.0965,140.092 -84.3957,211.64l-289.448 0c44.0622,-71.9693 75.2575,-137.094 81.828,-257.673 -0.147638,-0.161811 -0.295276,-0.323622 -0.442914,-0.485433 -32.6457,-35.8677 -43.715,-75.9544 -56.9103,-121.407 -21.0898,-72.6532 -36.6733,-100.28 -74.5087,-165.991 -10.0536,-17.4614 -10.6323,-36.2693 1.06063,-53.0516 3.98268,-5.71536 9.2315,-10.5839 15.1264,-14.2807 5.78859,-3.62953 12.3331,-6.14764 19.1079,-7.11969 18.9343,-2.71772 34.291,5.74371 43.8626,21.8303l60.6426 101.901 42.0107 -238.896c3.10158,-17.6433 13.3996,-29.9351 31.0701,-33.6673 5.76969,-1.21772 11.8134,-1.26496 17.6173,-0.244488 16.8532,2.95984 32.1107,19.7669 29.0362,36.5941l-29.1154 186.017c-0.382677,2.21457 1.10197,4.32284 3.31772,4.70552 2.21457,0.383859 4.32284,-1.10079 4.70552,-3.31536l49.0607 -232.285c4.65591,-25.4988 21.1595,-62.0044 48.8363,-57.1359 15.978,2.81103 30.5351,13.8201 34.1965,30.1843 4.09843,18.3248 1.09724,18.489 -2.68229,39.287l-43.1433 237.351c-0.636615,3.66851 1.82362,7.15749 5.49331,7.79292 3.66969,0.635434 7.15867,-1.82362 7.7941,-5.49213l43.7906 -225.947c6.99095,-38.2701 74.3918,-22.4516 68.641,24.0402zm394.785 -5.20158c-3.07441,-16.8272 12.1843,-33.6343 29.0374,-36.5941 5.80276,-1.02047 11.8465,-0.973229 17.6162,0.244488 17.6717,3.73229 27.9685,16.024 31.0713,33.6673l42.0107 238.896 60.6414 -101.901c9.57166,-16.0866 24.9295,-24.5481 43.8626,-21.8303 6.77481,0.972048 13.3205,3.49016 19.1079,7.11969 5.89489,3.69685 11.1437,8.56536 15.1264,14.2807 11.6929,16.7823 11.1142,35.5902 1.06181,53.0516 -37.8366,65.7107 -53.4189,93.3379 -74.5099,165.991 -13.1953,45.4524 -24.2634,85.539 -56.9103,121.407 -0.147638,0.161811 -0.294095,0.323622 -0.441733,0.485433 6.5693,120.579 37.7658,185.704 81.828,257.673l-289.449 0c-13.2992,-71.5477 -42.1406,-142.065 -84.3946,-211.64 -42.1607,-33.2173 -49.0536,-77.856 -58.0642,-148.637 -2.61732,-20.5654 -5.30197,-41.0717 -8.89371,-61.4977l-39.2292 -223.08c-8.37402,-47.6185 58.6548,-68.5158 65.6469,-30.287l41.5075 185.351c0.441733,2.54646 2.86418,4.25315 5.41182,3.81378 2.54764,-0.440552 2.32559,-17.8984 1.88386,-20.4449l-34.8142 -220.867c-5.75197,-46.4918 61.6489,-62.3103 68.641,-24.0402l43.7894 225.947c0.635434,3.66851 4.12559,6.12756 7.79528,5.49213 3.66851,-0.635434 6.12874,-4.12441 5.49213,-7.79292l-43.1422 -237.351c-3.78071,-20.798 -6.78189,-20.9622 -2.68347,-39.287 3.6626,-16.3642 18.2185,-27.3732 34.1965,-30.1843 27.6768,-4.86851 44.1803,31.637 48.8363,57.1359l49.0607 232.285c0.383859,2.21457 2.49095,3.69922 4.70552,3.31536 2.21693,-0.382677 3.70158,-2.49095 3.31772,-4.70552l-29.1154 -186.017z"/>
   </g>
  </g>
  <path class="fil2" d="M1024 0c565.539,0 1024,458.461 1024,1024 0,565.539 -458.461,1024 -1024,1024 -565.539,0 -1024,-458.461 -1024,-1024 0,-565.539 458.461,-1024 1024,-1024z"/>
  <path class="fil3" d="M604.623 1151.63l307.127 52.4918c-51.1489,77.8985 -85.702,156.973 -100.642,237.349l-289.449 0c47.8276,-78.1194 80.4957,-148.175 82.9642,-289.84z"/>
  <path class="fil4" d="M853.413 690.143l-43.7906 225.947c-0.635434,3.66851 -4.12441,6.12756 -7.7941,5.49331 -3.66969,-0.636615 -6.12993,-4.12559 -5.49331,-7.7941l43.1433 -237.351c3.77953,-20.798 6.78071,-20.9622 2.68229,-39.287 -3.66142,-16.3654 -18.2185,-27.3732 -34.1965,-30.1831 -27.6756,-4.86851 -44.1803,31.637 -48.8363,57.1359l-49.0607 232.283c-0.383859,2.21575 -2.49095,3.7004 -4.70552,3.31654 -2.21575,-0.382677 -3.7004,-2.49095 -3.31772,-4.70552l29.1154 -186.017c3.07441,-16.8272 -12.1831,-33.6331 -29.0362,-36.5941 -5.80394,-1.02047 -11.8476,-0.973229 -17.6162,0.244488 -17.6728,3.73229 -27.9697,16.024 -31.0713,33.6673l-42.0118 238.896 -60.6402 -101.901c-9.57284,-16.0854 -24.9295,-24.5481 -43.8638,-21.8303 -6.77481,0.972048 -13.3193,3.49016 -19.1079,7.12087 -5.89489,3.69567 -11.1437,8.56418 -15.1264,14.2795 -11.6929,16.7823 -11.1142,35.5902 -1.06063,53.0516 37.8355,65.7107 53.4189,93.339 74.5087,165.991 13.1953,45.4524 24.2646,85.539 56.9103,121.407 30.1323,33.1051 66.8103,64.4304 109.284,80.178 40.063,14.8536 79.552,13.9984 119.741,-0.638977 100.767,-36.7016 109.141,-84.6036 121.497,-181.657 2.61732,-20.5654 5.30197,-41.0717 8.89371,-61.4977l39.2292 -223.08c8.3752,-47.6185 -58.6548,-68.5158 -65.6469,-30.287l-41.5075 185.351c-0.441733,2.54764 -2.86299,4.25433 -5.41063,3.81378 -2.54764,-0.440552 -2.32677,-17.8984 -1.88504,-20.4449l34.8142 -220.867c5.75197,-46.4918 -61.6489,-62.3103 -68.6398,-24.0402z"/>
  <path class="fil5" d="M625.328 924.728c131.504,59.6292 127.717,127.664 120.272,252.109 -6.71812,-37.1362 -4.31575,-60.7512 -10.3854,-92.628 -18.6095,-97.7091 -33.8386,-95.8064 -109.886,-159.481z"/>
  <path class="fil5" d="M716.69 988.718c35.2583,37.3559 90.9969,38.0162 141.089,48.5481l0 0.0484252c-48.6426,4.58386 -47.7367,5.35276 -70.2733,2.11417 -18.2103,-2.61732 -80.928,-31.3394 -70.8154,-50.7107z"/>
  <path class="fil5" d="M749.456 1048.08c10.7185,1.40788 61.2331,51.9697 65.1544,60.2835 7.71024,16.3465 7.11497,25.5614 7.32638,43.0264l-0.0188977 0.0011811c-3.19016,-13.5378 -5.76024,-28.0264 -12.6319,-40.2851 -1.10551,-1.97362 -49.2993,-54.828 -59.83,-63.026z"/>
  <path class="fil3" d="M1443.38 1151.63l-307.127 52.4918c51.15,77.8985 85.7032,156.973 100.643,237.349l289.449 0c-47.8276,-78.1194 -80.4969,-148.175 -82.9654,-289.84z"/>
  <path class="fil4" d="M1194.59 690.143l43.7906 225.947c0.635434,3.66851 4.12559,6.12756 7.79528,5.49331 3.66851,-0.636615 6.12874,-4.12559 5.49213,-7.7941l-43.1433 -237.351c-3.77953,-20.798 -6.78071,-20.9622 -2.68229,-39.287 3.6626,-16.3654 18.2185,-27.3732 34.1965,-30.1831 27.6768,-4.86851 44.1803,31.637 48.8374,57.1359l49.0595 232.283c0.383859,2.21575 2.49095,3.7004 4.7067,3.31654 2.21457,-0.382677 3.7004,-2.49095 3.31654,-4.70552l-29.1154 -186.017c-3.07441,-16.8272 12.1831,-33.6331 29.0374,-36.5941 5.80276,-1.02047 11.8465,-0.973229 17.6162,0.244488 17.6717,3.73229 27.9685,16.024 31.0701,33.6673l42.0118 238.896 60.6414 -101.901c9.57166,-16.0854 24.9284,-24.5481 43.8626,-21.8303 6.77481,0.972048 13.3193,3.49016 19.1091,7.12087 5.89489,3.69567 11.1425,8.56418 15.1252,14.2795 11.6929,16.7823 11.1142,35.5902 1.06063,53.0516 -37.8355,65.7107 -53.4189,93.339 -74.5087,165.991 -13.1953,45.4524 -24.2646,85.539 -56.9103,121.407 -30.1311,33.1051 -66.8091,64.4304 -109.283,80.178 -40.0642,14.8536 -79.552,13.9984 -119.741,-0.638977 -100.768,-36.7016 -109.142,-84.6036 -121.498,-181.657 -2.61732,-20.5654 -5.30197,-41.0717 -8.89371,-61.4977l-39.2292 -223.08c-8.37402,-47.6185 58.6548,-68.5158 65.6469,-30.287l41.5087 185.351c0.440552,2.54764 2.86299,4.25433 5.41063,3.81378 2.54646,-0.440552 2.32559,-17.8984 1.88386,-20.4449l-34.8142 -220.867c-5.75079,-46.4918 61.6489,-62.3103 68.6398,-24.0402z"/>
  <path class="fil5" d="M1422.67 924.728c-131.505,59.6292 -127.719,127.664 -120.273,252.109 6.7193,-37.1362 4.31575,-60.7512 10.3866,-92.628 18.6095,-97.7091 33.8374,-95.8064 109.886,-159.481z"/>
  <path class="fil5" d="M1331.31 988.718c-35.2583,37.3559 -90.9969,38.0162 -141.089,48.5481l0 0.0484252c48.6426,4.58386 47.7378,5.35276 70.2733,2.11417 18.2114,-2.61732 80.9292,-31.3394 70.8154,-50.7107z"/>
  <path class="fil5" d="M1298.54 1048.08c-10.7173,1.40788 -61.2331,51.9697 -65.1544,60.2835 -7.71024,16.3465 -7.11497,25.5614 -7.32638,43.0264l0.0188977 0.0011811c3.19134,-13.5378 5.76024,-28.0264 12.6319,-40.2851 1.10551,-1.97362 49.2993,-54.828 59.83,-63.026z"/>
 </g>
</svg>
