<?xml version="1.0" encoding="UTF-8"?>
<!DOCTYPE svg PUBLIC "-//W3C//DTD SVG 1.1//EN" "http://www.w3.org/Graphics/SVG/1.1/DTD/svg11.dtd">
<!-- Creator: CorelDRAW -->
<svg xmlns="http://www.w3.org/2000/svg" xml:space="preserve" width="2048px" height="2048px" style="shape-rendering:geometricPrecision; text-rendering:geometricPrecision; image-rendering:optimizeQuality; fill-rule:evenodd; clip-rule:evenodd"
viewBox="0 0 2048 2048"
 xmlns:xlink="http://www.w3.org/1999/xlink">
 <defs>
  <style type="text/css">
   <![CDATA[
    .fil2 {fill:none}
    .fil4 {fill:#B0855B}
    .fil7 {fill:#B28F6C}
    .fil1 {fill:#BDBDBD}
    .fil6 {fill:#BF9A74}
    .fil5 {fill:#D1A77D}
    .fil0 {fill:#E0E0E0}
    .fil3 {fill:#31201E;fill-rule:nonzero}
   ]]>
  </style>
   <clipPath id="id0">
    <path d="M1024 0c565.539,0 1024,458.461 1024,1024 0,565.539 -458.461,1024 -1024,1024 -565.539,0 -1024,-458.461 -1024,-1024 0,-565.539 458.461,-1024 1024,-1024z"/>
   </clipPath>
 </defs>
 <g id="Layer_x0020_1">
  <metadata id="CorelCorpID_0Corel-Layer"/>
  <path class="fil0" d="M1024 0c565.539,0 1024,458.461 1024,1024 0,565.539 -458.461,1024 -1024,1024 -565.539,0 -1024,-458.461 -1024,-1024 0,-565.539 458.461,-1024 1024,-1024z"/>
  <g style="clip-path:url(#id0)">
   <g id="_281972968">
    <g>
     <polygon id="_2752356081" class="fil1" points="1516.58,622.976 2652.46,1758.86 2690.82,1805.04 1554.94,669.162 "/>
     <polygon id="_275235632" class="fil1" points="1584,1364.01 2719.88,2499.89 2719.87,2500.88 2719.83,2501.86 2719.73,2502.85 2719.6,2503.85 2719.41,2504.84 2719.18,2505.83 2718.91,2506.81 2718.58,2507.8 1582.7,1371.92 1583.02,1370.93 1583.3,1369.95 1583.53,1368.96 1583.72,1367.96 1583.85,1366.97 1583.94,1365.98 1583.99,1364.99 "/>
     <polygon id="_275236256" class="fil1" points="1554.1,1385.47 2689.98,2521.36 2674.67,2516.21 2659.09,2511.56 2643.25,2507.41 2627.2,2503.74 2610.93,2500.56 2594.49,2497.86 2577.87,2495.64 2561.12,2493.89 2544.25,2492.61 2527.28,2491.8 2510.23,2491.45 2493.13,2491.55 2475.99,2492.11 2458.84,2493.11 2441.69,2494.56 2424.58,2496.46 2407.51,2498.78 2390.52,2501.55 2373.62,2504.74 2356.84,2508.35 2340.19,2512.39 2323.7,2516.84 2307.4,2521.71 2291.29,2526.98 2275.4,2532.66 2259.75,2538.74 2244.37,2545.22 2229.28,2552.09 2214.49,2559.34 2200.04,2566.99 2185.93,2575.01 2172.19,2583.41 1036.31,1447.52 1050.05,1439.13 1064.15,1431.1 1078.61,1423.46 1093.4,1416.2 1108.49,1409.33 1123.87,1402.86 1139.52,1396.78 1155.4,1391.1 1171.51,1385.83 1187.82,1380.96 1204.31,1376.51 1220.96,1372.47 1237.74,1368.85 1254.64,1365.66 1271.63,1362.9 1288.7,1360.57 1305.81,1358.68 1322.95,1357.23 1340.11,1356.22 1357.25,1355.67 1374.35,1355.56 1391.4,1355.92 1408.37,1356.73 1425.24,1358.01 1441.99,1359.76 1458.6,1361.98 1475.05,1364.68 1491.32,1367.86 1507.37,1371.53 1523.21,1375.68 1538.79,1380.33 "/>
     <polygon id="_275237240" class="fil1" points="1582.7,1371.92 2718.58,2507.8 2717.7,2509.92 2716.64,2511.9 2715.4,2513.74 2714,2515.42 2712.46,2516.95 2710.78,2518.31 2708.99,2519.51 2707.09,2520.52 2705.11,2521.35 2703.05,2521.99 2700.93,2522.42 2698.77,2522.66 2696.58,2522.68 2694.37,2522.48 2692.17,2522.05 2689.97,2521.39 1554.09,1385.51 1556.28,1386.17 1558.49,1386.59 1560.7,1386.79 1562.89,1386.77 1565.05,1386.54 1567.17,1386.1 1569.23,1385.47 1571.21,1384.64 1573.1,1383.62 1574.9,1382.43 1576.57,1381.07 1578.12,1379.54 1579.52,1377.85 1580.76,1376.02 1581.82,1374.03 "/>
     <polygon id="_275237120" class="fil1" points="1036.31,1447.52 2172.19,2583.41 2171.87,2583.61 2171.55,2583.81 2171.22,2584.01 2170.9,2584.19 2170.57,2584.38 2170.23,2584.55 2169.9,2584.73 2169.56,2584.89 1033.68,1449.01 1034.02,1448.84 1034.35,1448.67 1034.69,1448.5 1035.02,1448.31 1035.34,1448.12 1035.67,1447.93 1035.99,1447.73 "/>
     <polygon id="_275237096" class="fil1" points="1033.68,1449.01 2169.56,2584.89 2169.37,2584.98 1033.48,1449.1 "/>
     <polygon id="_275237216" class="fil1" points="1033.48,1449.1 2169.37,2584.98 2169.34,2584.99 1033.46,1449.11 "/>
     <polygon id="_275237384" class="fil1" points="1033.46,1449.11 2169.34,2584.99 2168.28,2585.46 2167.19,2585.87 2166.1,2586.21 2165,2586.5 2163.89,2586.73 2162.78,2586.91 2161.66,2587.02 2160.54,2587.08 1024.66,1451.2 1025.78,1451.14 1026.9,1451.02 1028.01,1450.85 1029.12,1450.62 1030.22,1450.33 1031.31,1449.98 1032.39,1449.58 "/>
     <polygon id="_275237456" class="fil1" points="1024.66,1451.2 2160.54,2587.08 2160.48,2587.08 1024.6,1451.2 "/>
     <polygon id="_275237504" class="fil1" points="1024.6,1451.2 2160.48,2587.08 2160.11,2587.09 1024.23,1451.21 "/>
     <polygon id="_275236808" class="fil1" points="1024.23,1451.21 2160.11,2587.09 2159.88,2587.09 1024,1451.21 "/>
     <polygon id="_275236880" class="fil1" points="1024,1451.21 2159.88,2587.09 2159.65,2587.09 1023.77,1451.21 "/>
     <polygon id="_275236952" class="fil1" points="1023.77,1451.21 2159.65,2587.09 2159.28,2587.08 1023.4,1451.2 "/>
     <polygon id="_275237624" class="fil1" points="1023.4,1451.2 2159.28,2587.08 2159.22,2587.08 1023.34,1451.2 "/>
     <polygon id="_275238152" class="fil1" points="1023.34,1451.2 2159.22,2587.08 2158.1,2587.02 2156.99,2586.91 2155.87,2586.73 2154.76,2586.5 2153.66,2586.21 2152.57,2585.87 2151.49,2585.46 2150.42,2584.99 1014.54,1449.11 1015.61,1449.58 1016.69,1449.98 1017.78,1450.33 1018.88,1450.62 1019.99,1450.85 1021.11,1451.02 1022.22,1451.14 "/>
     <polygon id="_275238104" class="fil1" points="1014.54,1449.11 2150.42,2584.99 2150.4,2584.98 1014.52,1449.1 "/>
     <polygon id="_275238248" class="fil1" points="1014.52,1449.1 2150.4,2584.98 2150.2,2584.89 1014.32,1449.01 "/>
     <polygon id="_275237984" class="fil1" points="1014.32,1449.01 2150.2,2584.89 2149.86,2584.73 2149.53,2584.55 2149.2,2584.38 2148.87,2584.19 2148.54,2584.01 2148.21,2583.81 2147.89,2583.61 2147.57,2583.41 1011.69,1447.52 1012.01,1447.73 1012.33,1447.93 1012.66,1448.12 1012.98,1448.31 1013.31,1448.5 1013.65,1448.67 1013.98,1448.84 "/>
     <polygon id="_275238200" class="fil1" points="1011.69,1447.52 2147.57,2583.41 2133.84,2575.01 2119.73,2566.99 2105.27,2559.34 2090.48,2552.09 2075.39,2545.22 2060.01,2538.74 2044.36,2532.66 2028.48,2526.98 2012.37,2521.71 1996.06,2516.84 1979.57,2512.39 1962.92,2508.35 1946.14,2504.74 1929.24,2501.55 1912.25,2498.78 1895.19,2496.46 1878.07,2494.56 1860.93,2493.11 1843.77,2492.11 1826.64,2491.55 1809.53,2491.45 1792.48,2491.8 1775.51,2492.61 1758.64,2493.89 1741.89,2495.64 1725.28,2497.86 1708.83,2500.56 1692.57,2503.74 1676.51,2507.41 1660.68,2511.56 1645.09,2516.21 1629.78,2521.36 493.9,1385.47 509.213,1380.33 524.795,1375.68 540.626,1371.53 556.685,1367.86 572.947,1364.68 589.395,1361.98 606.006,1359.76 622.758,1358.01 639.63,1356.73 656.601,1355.92 673.649,1355.56 690.754,1355.67 707.893,1356.22 725.045,1357.23 742.19,1358.68 759.304,1360.57 776.368,1362.9 793.359,1365.66 810.257,1368.85 827.04,1372.47 843.687,1376.51 860.176,1380.96 876.486,1385.83 892.595,1391.1 908.483,1396.78 924.127,1402.86 939.507,1409.33 954.601,1416.2 969.388,1423.46 983.846,1431.1 997.954,1439.13 "/>
     <polygon id="_275237648" class="fil1" points="493.9,1385.47 1629.78,2521.36 1629.79,2521.39 493.913,1385.51 "/>
     <polygon id="_275237816" class="fil1" points="493.913,1385.51 1629.79,2521.39 1627.6,2522.05 1625.39,2522.48 1623.18,2522.68 1620.99,2522.66 1618.83,2522.42 1616.71,2521.99 1614.65,2521.35 1612.67,2520.52 1610.78,2519.51 1608.98,2518.31 1607.31,2516.95 471.426,1381.07 473.103,1382.43 474.896,1383.62 476.79,1384.64 478.773,1385.47 480.831,1386.1 482.947,1386.54 485.107,1386.77 487.3,1386.79 489.507,1386.59 491.716,1386.17 "/>
     <polygon id="_275238272" class="fil1" points="1516.58,622.919 2652.46,1758.8 2652.46,1758.86 1516.58,622.976 "/>
     <polygon id="_275238032" class="fil1" points="1584,693.689 2719.88,1829.57 2719.88,2499.89 1584,1364.01 "/>
     <polygon id="_275237936" class="fil1" points="1578.66,679.175 2714.54,1815.06 2715.72,1816.58 2716.78,1818.2 2717.69,1819.91 2718.46,1821.7 2719.07,1823.58 2719.51,1825.52 2719.78,1827.52 2719.88,1829.57 1584,693.689 1583.9,691.636 1583.63,689.634 1583.19,687.694 1582.58,685.821 1581.81,684.024 1580.9,682.313 1579.84,680.693 "/>
    </g>
    <path id="_281973160" class="fil1" d="M1584 693.689l0 670.319c0.0472441,2.61969 -0.366142,5.29252 -1.29685,7.90749 -4.14567,11.6551 -16.9571,17.7414 -28.6122,13.5945l0.0129921 -0.0366142c-161.824,-57.5516 -373.324,-29.5311 -517.791,62.0516 -0.846851,0.5563 -1.72559,1.05 -2.6315,1.48347l-0.193701 0.0933072 -0.0236221 0.0106299c-2.82284,1.32047 -5.8193,2.00197 -8.80158,2.08701l-0.0590552 0.00236221 -0.367323 0.00590552 -0.232677 0.00236221 -0.232677 -0.00236221 -0.367323 -0.00590552 -0.0590552 -0.00236221c-2.98229,-0.0850394 -5.97756,-0.765355 -8.80158,-2.08701l-0.0236221 -0.0106299 -0.193701 -0.0933072c-0.905906,-0.433465 -1.78465,-0.927166 -2.6315,-1.48347 -144.467,-91.5827 -355.967,-119.603 -517.791,-62.0516l0.0129921 0.0366142c-11.6551,4.14685 -24.4666,-1.93937 -28.6122,-13.5945 -0.930709,-2.61496 -1.3441,-5.2878 -1.29685,-7.90749l0 -670.319c0,-11.074 8.03741,-20.2713 18.5977,-22.0772 3.43229,-0.884646 6.99095,-1.6937 10.6689,-2.42953l0 -0.177165 38.1544 -45.0508 0 -1.03583 17.6445 -4.51181c78.5953,-20.1036 160.228,-26.8559 240.906,-17.413 78.3686,9.17127 153.976,33.4914 222.369,72.8942l11.6563 6.71575 11.6563 -6.71575c68.393,-39.4028 144,-63.7229 222.369,-72.8942 80.6776,-9.44292 162.311,-2.69055 240.906,17.413l17.6445 4.51181 0.00472441 0.0578741 38.3551 46.1859c3.56103,0.753544 7.05001,1.56969 10.461,2.44961 10.5602,1.80473 18.6,11.002 18.6,22.0772z"/>
   </g>
  </g>
  <path class="fil2" d="M1024 0c565.539,0 1024,458.461 1024,1024 0,565.539 -458.461,1024 -1024,1024 -565.539,0 -1024,-458.461 -1024,-1024 0,-565.539 458.461,-1024 1024,-1024z"/>
  <path class="fil3" d="M1011.69 1447.52c0.846851,0.5563 1.72559,1.05 2.6315,1.48347l0.193701 0.0933072 0.0236221 0.0106299c2.82402,1.32165 5.8193,2.00197 8.80158,2.08701l0.0590552 0.00236221 0.367323 0.00590552 0.232677 0.00236221 0.232677 -0.00236221 0.367323 -0.00590552 0.0590552 -0.00236221c2.98229,-0.0850394 5.97874,-0.766536 8.80158,-2.08701l0.0236221 -0.0106299 0.193701 -0.0933072c0.905906,-0.433465 1.78465,-0.927166 2.6315,-1.48347 144.467,-91.5827 355.967,-119.603 517.791,-62.0516l-0.0129921 0.0366142c11.6551,4.14685 24.4666,-1.93937 28.6122,-13.5945 0.930709,-2.61496 1.3441,-5.2878 1.29685,-7.90749l0 -670.319c0,-11.0752 -8.03977,-20.2725 -18.6,-22.0772 -135.607,-34.9796 -392.861,31.676 -541.443,50.1414 -138.365,-17.0256 -419.587,-81.5398 -541.353,-50.1414 -10.5602,1.80591 -18.5977,11.0032 -18.5977,22.0772l0 670.319c-0.0472441,2.61969 0.366142,5.29252 1.29685,7.90749 4.14567,11.6551 16.9571,17.7414 28.6122,13.5945l-0.0129921 -0.0366142c161.824,-57.5516 373.324,-29.5311 517.791,62.0516z"/>
  <path class="fil4" d="M1036.57 688.267c73.7516,-41.6091 154.812,-81.1099 239.791,-76.976l240.22 11.6858 38.5878 46.467 0 670.452c-203.043,-60.1855 -351.038,-33.8882 -531.071,66.9993l0 0.108662 -0.0968505 -0.0543308 -0.0968505 0.0543308 0 -0.108662c-179.923,-100.826 -328.138,-127.153 -531.071,-66.9993l0.438189 -670.89 38.4945 -45.4524c84.7536,-21.228 152.876,-22.2331 239.875,-12.2622 84.5079,9.68505 166.039,35.367 239.791,76.976l12.5693 7.09134 12.5693 -7.09134z"/>
  <path class="fil5" d="M782.169 1266c-72.9945,-9.52087 -149.837,-5.57953 -220.493,15.8067l-30.2516 9.15591 0 -668.045 17.6445 -4.51181c78.5953,-20.1024 160.228,-26.8559 240.906,-17.4142 78.3686,9.17245 153.976,33.4925 222.37,72.8953l11.7461 6.76772 -0.0011811 673.858 -35.1059 -20.0894c-63.1229,-36.124 -134.757,-59.0256 -206.815,-68.4237z"/>
  <path class="fil6" d="M977.891 1276.37l0.0011811 -568.822c-59.9067,-32.5146 -125.524,-52.7386 -193.286,-60.6697 -69.176,-8.09528 -139.197,-3.30236 -206.982,12.1488l0 570.654c68.5548,-16.2851 140.966,-18.5622 210.521,-9.49135 65.3729,8.52638 130.217,27.3107 189.747,56.1804z"/>
  <path class="fil6" d="M1035.66 673.888c68.3941,-39.4028 144.001,-63.7229 222.37,-72.8953 80.6776,-9.44174 162.311,-2.68819 240.906,17.4142l17.6445 4.51181 0 668.045 -30.2516 -9.15591c-70.656,-21.3862 -147.499,-25.3276 -220.493,-15.8067 -72.0579,9.39804 -143.692,32.2996 -206.815,68.4237l-35.1059 20.0894 -0.0011811 -673.858 11.7461 -6.76772z"/>
  <path class="fil7" d="M1070.11 707.548l0.0011811 568.822c59.53,-28.8697 124.374,-47.654 189.747,-56.1804 69.5552,-9.07087 141.966,-6.79371 210.521,9.49135l0 -570.654c-67.7859,-15.4512 -137.806,-20.2441 -206.982,-12.1488 -67.7623,7.93111 -133.38,28.1551 -193.286,60.6697z"/>
 </g>
</svg>
